<svg width="78" height="78" viewBox="0 0 78 78" fill="none" xmlns="http://www.w3.org/2000/svg">
<path d="M39 0C17.4611 0 0 17.4611 0 39C0 60.5389 17.4611 78 39 78C60.5389 78 78 60.5389 78 39C78 17.4611 60.5389 0 39 0ZM28.375 19.9688C29.1456 19.9513 29.942 20.1414 30.7188 20.5625L55.7188 35.0312C57.0795 35.8214 58 37.272 58 38.9687C58 40.6654 57.0794 42.1159 55.7188 42.9062L30.7188 57.4062C27.6119 59.0906 24.079 56.9444 24 53.4062V24.5312C24.059 21.8775 26.0632 20.0208 28.375 19.9688Z" fill="black"/>
</svg>
